<?xml version="1.0" encoding="UTF-8"?>
<svg xmlns="http://www.w3.org/2000/svg" xmlns:xlink="http://www.w3.org/1999/xlink" width="1549pt" height="404.73pt" viewBox="0 0 1549 404.73" version="1.1">
<defs>
<clipPath id="clip1">
  <path d="M 831 6 L 1549 6 L 1549 404.730469 L 831 404.730469 Z M 831 6 "/>
</clipPath>
</defs>
<g id="surface1">
<path style=" stroke:none;fill-rule:nonzero;fill:rgb(13.699341%,12.199402%,12.5%);fill-opacity:1;" d="M 298.679688 51.867188 L 445.8125 246.339844 L 451.550781 253.902344 L 442.101563 255.019531 L 442.003906 255.019531 C 431.402344 256.230469 420.507813 257.566406 409.308594 258.953125 C 397.324219 260.460938 386.535156 261.847656 377.003906 263.117188 C 322.179688 270.449219 268.863281 278.894531 217.746094 287.984375 L 208.703125 289.589844 L 211.660156 280.878906 L 289.195313 53.394531 L 292.515625 43.703125 Z M 548.449219 124.921875 L 644.558594 166.222656 L 649.542969 168.363281 L 647.40625 173.347656 L 647.375 173.363281 L 647.375 173.378906 C 644.765625 179.464844 641.746094 185.175781 638.332031 190.492188 C 634.949219 195.773438 631.160156 200.683594 627.054688 205.164063 C 605.949219 228.171875 576.097656 240.046875 541.71875 240.046875 L 541.703125 240.046875 C 508.640625 240.046875 478.632813 226.554688 456.898438 204.816406 C 435.164063 183.097656 421.699219 153.089844 421.667969 120.046875 L 421.667969 120.015625 C 421.683594 86.957031 435.164063 56.949219 456.898438 35.214844 C 478.632813 13.476563 508.625 0 541.671875 0 L 541.71875 0 C 561.863281 0 581.539063 5.160156 598.949219 14.53125 C 601.78125 16.058594 604.566406 17.710938 607.253906 19.4375 C 621.140625 28.417969 633.25 40.261719 642.5 54.402344 L 645.394531 58.851563 L 640.988281 61.839844 Z M 113.695313 74.375 C 114.765625 74.140625 115.863281 73.902344 116.996094 73.683594 C 144.691406 68.113281 167.96875 70.507813 185.742188 80.117188 C 203.8125 89.882813 216 106.914063 221.207031 130.410156 L 221.222656 130.410156 C 221.351563 131.023438 221.507813 131.683594 221.632813 132.394531 L 221.648438 132.441406 C 222.589844 137.128906 222.9375 141.953125 222.734375 146.816406 C 222.5625 151.613281 221.820313 156.488281 220.59375 161.347656 C 214.398438 185.992188 195.226563 209.300781 169.023438 216.1875 L 147.460938 221.851563 L 161.566406 291.964844 L 162.652344 297.3125 L 157.261719 298.363281 L 157.210938 298.363281 C 152.792969 299.230469 147.761719 300.207031 142.113281 301.320313 C 137.726563 302.1875 132.820313 303.164063 127.1875 304.296875 C 101.144531 309.546875 76.542969 314.769531 53.394531 319.929688 L 48.078125 321.105469 L 46.914063 315.792969 L 1.132813 105.21875 L 0 99.980469 L 5.253906 98.769531 C 9.261719 97.792969 14.109375 96.628906 19.722656 95.308594 C 23.84375 94.332031 28.765625 93.183594 34.425781 91.863281 C 59.765625 85.980469 86.234375 80.128906 113.695313 74.390625 L 113.695313 74.375 "/>
<path style=" stroke:none;fill-rule:evenodd;fill:rgb(46.699524%,79.199219%,85.499573%);fill-opacity:1;" d="M 114.859375 79.691406 C 170.25 67.453125 207.066406 87.492188 216.300781 133.464844 C 222.402344 163.738281 201.265625 202.113281 167.640625 210.953125 C 158.234375 213.421875 150.558594 215.433594 141.140625 217.917969 C 146.171875 242.941406 151.203125 267.980469 156.238281 293.019531 C 120.046875 300.015625 85.289063 307.265625 52.214844 314.628906 C 36.976563 244.453125 21.71875 174.242188 6.449219 104.054688 C 40.578125 95.84375 76.8125 87.648438 114.859375 79.691406 Z M 294.355469 55.140625 L 441.46875 249.609375 C 363.101563 258.671875 287.65625 270.023438 216.820313 282.621094 Z M 537.21875 126.007813 L 642.40625 171.207031 C 624.507813 212.839844 587.359375 234.621094 541.71875 234.621094 C 478.601563 234.621094 427.109375 183.128906 427.109375 120.03125 C 427.109375 56.914063 478.601563 5.441406 541.71875 5.441406 C 580.203125 5.441406 616.894531 25.132813 637.9375 57.359375 L 537.21875 126.007813 "/>
<path style=" stroke:none;fill-rule:nonzero;fill:rgb(13.699341%,12.199402%,12.5%);fill-opacity:1;" d="M 330.007813 54.464844 L 491.074219 270.242188 L 496.675781 277.730469 L 487.378906 278.894531 C 487.269531 278.910156 487.316406 278.894531 487.378906 278.894531 L 487.363281 278.894531 C 487.347656 278.894531 487.316406 278.894531 487.285156 278.910156 C 474.183594 280.53125 462.261719 282.054688 451.488281 283.488281 C 440.273438 284.980469 428.449219 286.632813 416.132813 288.378906 C 355.804688 296.964844 297.453125 306.683594 241.792969 317.113281 L 232.71875 318.796875 L 235.644531 310.050781 L 320.527344 55.988281 L 323.8125 46.144531 Z M 584.386719 147.851563 L 672.335938 196.011719 L 676.691406 198.386719 L 674.738281 202.914063 C 674.695313 203.042969 674.550781 203.324219 674.097656 204.363281 C 671.421875 210.304688 668.339844 215.796875 664.863281 220.84375 C 661.339844 225.941406 657.488281 230.550781 653.351563 234.652344 C 632.101563 255.664063 602.300781 265.242188 568.925781 265.023438 C 568.34375 265.023438 567.792969 264.992188 567.304688 264.992188 C 558.277344 264.804688 549.453125 263.621094 540.992188 261.53125 C 532.5625 259.472656 524.496094 256.5 516.914063 252.722656 C 478.210938 233.519531 451.945313 193.746094 451.945313 147.257813 C 451.945313 146.703125 451.960938 146.171875 451.976563 145.667969 L 451.976563 145.652344 C 452.355469 113.742188 464.449219 84.847656 484.40625 63.851563 C 504.429688 42.792969 532.375 29.726563 564.394531 29.503906 C 564.929688 29.503906 565.464844 29.503906 565.96875 29.503906 C 566.597656 29.519531 567.164063 29.519531 567.636719 29.535156 C 573.300781 29.691406 578.835938 30.511719 584.246094 31.894531 C 589.558594 33.230469 594.78125 35.152344 599.847656 37.523438 C 624.917969 49.304688 645.832031 72.472656 660.980469 95.777344 L 664.0625 100.515625 L 659.203125 103.40625 Z M 153.863281 87.304688 C 155.84375 86.847656 157.746094 86.4375 159.585938 86.09375 C 186.496094 80.996094 209.160156 83.875 226.570313 93.972656 C 244.183594 104.195313 256.21875 121.617188 261.625 145.511719 C 261.941406 146.894531 262.222656 148.261719 262.476563 149.597656 L 262.492188 149.644531 C 263.433594 154.617188 263.78125 159.710938 263.59375 164.808594 C 263.402344 169.886719 262.664063 175.0625 261.46875 180.140625 C 255.226563 206.28125 235.960938 230.925781 209.570313 238.066406 L 187.722656 243.996094 L 201.988281 319.1875 L 202.996094 324.472656 L 197.726563 325.527344 L 197.664063 325.542969 L 197.648438 325.542969 C 193.132813 326.4375 188.101563 327.429688 182.453125 328.59375 C 174.953125 330.101563 169.9375 331.125 167.417969 331.628906 C 142.050781 336.863281 117.230469 342.292969 93.121094 347.8125 L 87.710938 349.039063 L 86.597656 343.582031 L 40.5 118.898438 L 39.445313 113.757813 L 44.554688 112.53125 L 44.601563 112.515625 L 44.601563 112.53125 C 48.566406 111.539063 53.441406 110.34375 59.121094 108.960938 C 66.164063 107.261719 71.292969 106.019531 73.949219 105.371094 C 99.351563 99.316406 126.023438 93.265625 153.863281 87.304688 "/>
<path style=" stroke:none;fill-rule:evenodd;fill:rgb(93.299866%,17.599487%,15.699768%);fill-opacity:1;" d="M 154.992188 92.601563 C 210.765625 79.941406 247.835938 101.550781 257.144531 150.589844 C 263.277344 182.910156 242.015625 223.628906 208.136719 232.828125 C 198.652344 235.40625 190.933594 237.484375 181.449219 240.078125 C 186.511719 266.769531 191.59375 293.488281 196.65625 320.210938 C 160.21875 327.398438 125.207031 334.886719 91.898438 342.496094 C 76.53125 267.617188 61.179688 192.722656 45.800781 117.828125 C 80.164063 109.304688 116.652344 100.828125 154.992188 92.601563 Z M 325.667969 57.71875 L 486.703125 273.5 C 400.910156 284.117188 318.324219 297.265625 240.789063 311.78125 Z M 573.441406 148.039063 L 669.738281 200.777344 C 652.0625 241.699219 613.984375 259.882813 568.957031 259.582031 C 506.691406 259.140625 457.402344 209.519531 457.402344 147.257813 C 457.402344 84.992188 503.703125 34.519531 565.96875 34.945313 C 603.933594 35.214844 635.6875 66.792969 656.433594 98.734375 L 573.441406 148.039063 "/>
<path style=" stroke:none;fill-rule:nonzero;fill:rgb(13.699341%,12.199402%,12.5%);fill-opacity:1;" d="M 824.828125 12.394531 L 923.34375 140.429688 L 1042.730469 39.617188 L 1021.109375 247.644531 L 1020.519531 253.132813 L 1015.039063 252.457031 C 979.113281 247.910156 944.183594 243.902344 909.644531 240.394531 C 875.816406 236.964844 841.90625 234.023438 807.230469 231.601563 L 801.597656 231.210938 L 802.195313 225.578125 Z M 1334.320313 93.324219 L 1406.789063 237.863281 L 1439.691406 120.40625 L 1441.171875 115.140625 L 1446.410156 116.648438 L 1446.460938 116.648438 L 1446.441406 116.664063 C 1449.371094 117.46875 1451.800781 118.175781 1453.929688 118.773438 C 1456.800781 119.589844 1460.03125 120.519531 1463.5 121.511719 C 1480.378906 126.386719 1504.679688 133.476563 1520.96875 138.289063 L 1526.160156 139.816406 L 1524.671875 145.007813 L 1463.769531 354.746094 L 1462.261719 359.953125 L 1457.070313 358.476563 C 1457.089844 358.476563 1457.148438 358.492188 1457.179688 358.492188 L 1457.070313 358.460938 L 1457.070313 358.476563 L 1457.070313 358.460938 L 1457.070313 358.476563 C 1457.070313 358.476563 1457.070313 358.476563 1457.070313 358.460938 L 1457.019531 358.445313 C 1450.308594 356.476563 1442.851563 354.339844 1434.609375 352.027344 C 1427.679688 350.0625 1419.96875 347.921875 1411.398438 345.59375 C 1370.789063 334.507813 1326.96875 323.511719 1280.859375 313.148438 L 1275.308594 311.890625 L 1276.800781 306.449219 Z M 1200.078125 70.851563 L 1264.679688 305.113281 L 1267.230469 314.296875 L 1258.039063 311.796875 L 1258.011719 311.796875 C 1257.988281 311.796875 1257.988281 311.78125 1257.960938 311.78125 C 1257.988281 311.78125 1257.988281 311.796875 1257.988281 311.78125 C 1247.570313 309.140625 1237.660156 306.683594 1228.289063 304.421875 C 1218.601563 302.0625 1208.46875 299.671875 1197.921875 297.25 C 1145.398438 285.125 1090.460938 274.003906 1034.191406 264.613281 L 1024.71875 263.027344 L 1030.949219 255.714844 L 1190.730469 68.777344 L 1197.371094 61.007813 L 1200.078125 70.851563 "/>
<path style=" stroke:none;fill-rule:evenodd;fill:rgb(46.699524%,79.199219%,85.499573%);fill-opacity:1;" d="M 1335.828125 108.863281 L 1408.238281 252.851563 L 1444.921875 121.871094 C 1459.710938 126.007813 1497.78125 137.109375 1519.449219 143.496094 L 1458.578125 353.238281 C 1406.101563 337.9375 1346.539063 322.351563 1282.039063 307.847656 Z M 828.949219 26.625 L 922.527344 148.246094 L 1036.570313 52.214844 L 1015.699219 247.078125 C 943.539063 237.972656 875.832031 230.941406 807.589844 226.160156 Z M 1194.851563 72.296875 L 1259.460938 306.558594 C 1189.171875 288.742188 1113.410156 272.335938 1035.089844 259.25 L 1194.851563 72.296875 "/>
<g clip-path="url(#clip1)" clip-rule="nonzero">
<path style=" stroke:none;fill-rule:nonzero;fill:rgb(13.699341%,12.199402%,12.5%);fill-opacity:1;" d="M 1368.179688 103.390625 L 1439.21875 250.082031 L 1464.808594 165.390625 L 1466.410156 160.121094 L 1471.648438 161.773438 L 1471.699219 161.789063 C 1471.730469 161.804688 1474.140625 162.589844 1478.980469 164.132813 C 1483.398438 165.5625 1486.839844 166.679688 1488.28125 167.152344 C 1506.199219 173 1529.449219 180.660156 1544.03125 185.503906 L 1549 187.15625 L 1547.550781 192.15625 L 1488.5 399.273438 L 1486.941406 404.730469 L 1481.558594 402.9375 L 1481.53125 402.9375 C 1474.46875 400.609375 1467.21875 398.25 1459.820313 395.875 C 1451.5 393.230469 1443.960938 390.859375 1437.300781 388.78125 C 1398.03125 376.625 1355.539063 364.40625 1310.621094 352.6875 L 1305.378906 351.304688 L 1305.441406 351.054688 L 1298.179688 349.179688 L 1298.109375 349.164063 L 1298.109375 349.148438 C 1288.078125 346.507813 1277.230469 343.722656 1265.570313 340.8125 C 1254.910156 338.125 1243.871094 335.417969 1232.421875 332.699219 C 1175 318.96875 1114.980469 306.386719 1053.601563 295.785156 L 1047.699219 294.746094 L 1047.699219 294.78125 L 1042.039063 293.882813 C 1007.308594 288.347656 972.730469 283.769531 938.425781 279.839844 C 905.101563 276.03125 871.191406 272.761719 837.457031 269.773438 L 831.9375 269.285156 L 832.519531 263.78125 L 858.988281 6.777344 L 957.960938 149.898438 L 1074.078125 44.601563 L 1048.300781 289.085938 L 1048.25 289.480469 L 1050.339844 286.964844 L 1224.789063 75.507813 L 1231.511719 67.359375 L 1234.210938 77.566406 L 1304.769531 342.511719 L 1306.230469 347.984375 L 1306.71875 346.097656 L 1368.179688 103.390625 "/>
</g>
<path style=" stroke:none;fill-rule:evenodd;fill:rgb(93.299866%,17.599487%,15.699768%);fill-opacity:1;" d="M 1228.988281 78.949219 L 1299.511719 343.894531 C 1222.78125 323.765625 1140.039063 305.191406 1054.53125 290.40625 Z M 862.949219 22.144531 L 957.015625 158.074219 L 1067.199219 58.082031 L 1042.910156 288.535156 C 972.949219 277.351563 904.253906 270.214844 837.910156 264.328125 Z M 1370.179688 119.511719 L 1440.398438 265.023438 L 1470.03125 166.960938 C 1484.359375 171.523438 1521.320313 183.679688 1542.328125 190.679688 L 1483.261719 397.761719 C 1432.371094 381.011719 1374.539063 363.746094 1311.988281 347.433594 L 1370.179688 119.511719 "/>
<path style=" stroke:none;fill-rule:nonzero;fill:rgb(13.699341%,12.199402%,12.5%);fill-opacity:1;" d="M 718.335938 121.460938 L 802.558594 121.460938 L 802.558594 175.988281 L 712.878906 175.988281 L 712.878906 121.460938 L 718.335938 121.460938 "/>
<path style=" stroke:none;fill-rule:evenodd;fill:rgb(93.299866%,17.599487%,15.699768%);fill-opacity:1;" d="M 718.335938 126.902344 L 797.113281 126.902344 L 797.113281 170.546875 L 718.335938 170.546875 L 718.335938 126.902344 "/>
<path style=" stroke:none;fill-rule:nonzero;fill:rgb(13.699341%,12.199402%,12.5%);fill-opacity:1;" d="M 689.367188 91.519531 L 771.136719 91.519531 L 771.136719 142.820313 L 683.925781 142.820313 L 683.925781 91.519531 L 689.367188 91.519531 "/>
<path style=" stroke:none;fill-rule:evenodd;fill:rgb(46.699524%,79.199219%,85.499573%);fill-opacity:1;" d="M 689.367188 96.960938 L 765.675781 96.960938 L 765.675781 137.378906 L 689.367188 137.378906 L 689.367188 96.960938 "/>
<path style=" stroke:none;fill-rule:nonzero;fill:rgb(13.699341%,12.199402%,12.5%);fill-opacity:1;" d="M 134.171875 82.710938 C 136.3125 82.222656 137.410156 81.988281 137.410156 81.988281 C 166.019531 76.230469 190.191406 78.777344 208.765625 88.8125 C 227.859375 99.144531 240.726563 117.042969 246.183594 141.6875 L 246.214844 141.71875 C 246.402344 142.632813 246.558594 143.324219 246.640625 143.746094 L 246.652344 143.796875 C 247.644531 148.796875 248.023438 153.9375 247.816406 159.082031 C 247.613281 164.117188 246.84375 169.257813 245.554688 174.402344 C 239.042969 200.289063 218.847656 224.792969 191.199219 232.074219 L 173.191406 236.792969 L 186.574219 303.320313 L 188.414063 312.488281 L 179.183594 314.28125 L 179.136719 314.28125 C 175.410156 315.003906 170.171875 316.042969 164.054688 317.238281 C 160.21875 318.007813 155.167969 319 149.144531 320.226563 C 122.675781 325.558594 98.125 330.761719 75.429688 335.8125 L 66.289063 337.855469 L 64.308594 328.703125 L 18.542969 118.144531 L 16.59375 109.179688 L 25.542969 107.101563 L 25.542969 107.089844 C 28.828125 106.300781 33.703125 105.136719 40.027344 103.644531 C 43.566406 102.808594 48.410156 101.675781 54.761719 100.199219 C 80.050781 94.332031 106.570313 88.464844 134.15625 82.695313 Z M 573.472656 134.972656 L 662.695313 173.316406 L 671.21875 176.980469 L 667.570313 185.535156 L 667.570313 185.585938 C 664.863281 191.859375 661.640625 197.867188 657.960938 203.558594 C 654.246094 209.347656 650.128906 214.695313 645.722656 219.570313 C 622.667969 245.050781 589.371094 260.589844 553.8125 260.589844 C 519.683594 260.589844 488.699219 246.671875 466.257813 224.242188 C 443.847656 201.78125 429.910156 170.816406 429.894531 136.703125 L 429.894531 136.65625 C 429.910156 102.542969 443.847656 71.558594 466.289063 49.117188 C 488.699219 26.6875 519.667969 12.769531 553.796875 12.753906 L 553.84375 12.753906 C 574.617188 12.769531 594.9375 18.085938 612.902344 27.773438 C 615.824219 29.347656 618.671875 31.03125 621.457031 32.820313 C 635.800781 42.085938 648.304688 54.320313 657.851563 68.949219 L 662.929688 76.71875 L 655.113281 81.800781 Z M 318.433594 61.636719 L 465.5625 256.121094 L 475.394531 269.113281 L 459.179688 270.96875 L 459.085938 271 C 448.78125 272.179688 437.886719 273.5 426.433594 274.929688 C 413.570313 276.535156 402.796875 277.902344 394.132813 279.085938 C 339.589844 286.382813 286.304688 294.808594 235.0625 303.914063 L 219.554688 306.683594 L 224.652344 291.742188 L 302.1875 64.277344 L 307.851563 47.652344 L 318.433594 61.636719 "/>
<path style=" stroke:none;fill-rule:evenodd;fill:rgb(98.799133%,77.999878%,24.299622%);fill-opacity:1;" d="M 311.011719 67.25 L 458.125 261.71875 C 379.738281 270.796875 304.296875 282.148438 233.460938 294.746094 Z M 136.058594 91.800781 C 191.433594 79.566406 228.253906 99.601563 237.5 145.574219 C 243.585938 175.847656 222.449219 214.222656 188.824219 223.0625 C 179.417969 225.546875 171.746094 227.558594 162.324219 230.03125 C 167.355469 255.066406 172.40625 280.105469 177.421875 305.128906 C 141.230469 312.125 106.492188 319.375 73.414063 326.753906 C 58.160156 256.546875 42.90625 186.351563 27.648438 116.179688 C 61.746094 107.953125 98 99.757813 136.058594 91.800781 Z M 553.828125 136.671875 L 658.996094 181.886719 C 641.113281 223.519531 599.484375 251.261719 553.828125 251.261719 C 490.699219 251.261719 439.238281 199.785156 439.238281 136.671875 C 439.238281 73.554688 490.699219 22.078125 553.828125 22.078125 C 592.328125 22.078125 629.019531 41.785156 650.0625 74.015625 L 553.828125 136.671875 "/>
<path style=" stroke:none;fill-rule:nonzero;fill:rgb(13.699341%,12.199402%,12.5%);fill-opacity:1;" d="M 1044.480469 263.6875 L 1204.25 76.71875 L 1215.640625 63.414063 L 1220.28125 80.289063 L 1284.890625 314.550781 L 1288.03125 326.03125 L 1289.53125 320.460938 L 1348.460938 99.082031 L 1418.539063 245.050781 L 1447.539063 139.265625 L 1450.140625 129.859375 L 1459.351563 132.800781 C 1469.71875 136.105469 1491.769531 143.371094 1511.160156 149.785156 C 1514.921875 151.03125 1518.601563 152.257813 1522.070313 153.402344 C 1529.511719 155.890625 1515.96875 151.390625 1531.460938 156.566406 L 1531.480469 156.550781 C 1531.890625 156.675781 1531.710938 156.628906 1531.78125 156.644531 L 1540.269531 159.460938 L 1537.828125 168.015625 L 1478.761719 375.871094 L 1476.089844 385.257813 L 1466.871094 382.207031 C 1430.191406 370.097656 1390.089844 357.75 1347.441406 345.75 C 1340.109375 343.707031 1331.691406 341.378906 1322.101563 338.769531 C 1311.628906 335.925781 1302.910156 333.59375 1296.210938 331.847656 L 1296.179688 331.832031 L 1287.121094 329.472656 L 1273.660156 326.058594 C 1223.171875 313.289063 1169.921875 301.226563 1114.980469 290.613281 C 1103.21875 288.347656 1092.460938 286.335938 1082.710938 284.574219 C 1072.789063 282.777344 1061.941406 280.90625 1050.089844 278.925781 L 1050.03125 278.910156 L 1037.761719 276.882813 L 1037.730469 277.039063 L 1028.179688 275.730469 C 993.207031 271 959.1875 266.753906 925.484375 263.070313 C 892.863281 259.488281 859.820313 256.40625 825.679688 253.824219 L 816.175781 253.101563 L 817.105469 243.585938 L 841.042969 9.121094 L 940 148.484375 L 1061.570313 36.800781 L 1038.691406 267.445313 L 1038.339844 270.875 L 1044.480469 263.6875 "/>
<path style=" stroke:none;fill-rule:evenodd;fill:rgb(98.799133%,77.999878%,24.299622%);fill-opacity:1;" d="M 1350.691406 125.503906 L 1298.511719 322.835938 C 1361.070313 339.210938 1418.890625 356.539063 1469.800781 373.367188 L 1528.871094 165.5 C 1507.859375 158.484375 1470.878906 146.28125 1456.539063 141.703125 L 1420.929688 271.550781 Z M 847.191406 34.316406 L 826.367188 244.5 C 892.976563 249.53125 959.015625 256.941406 1029.429688 266.53125 L 1049.761719 61.257813 L 938.519531 162.417969 Z M 1211.320313 82.773438 L 1051.539063 269.726563 C 1129.859375 282.796875 1205.640625 299.230469 1275.921875 317.015625 L 1211.320313 82.773438 "/>
<path style=" stroke:none;fill-rule:evenodd;fill:rgb(13.699341%,12.199402%,12.5%);fill-opacity:1;" d="M 333.25 182.234375 C 341.539063 182.234375 348.285156 188.980469 348.285156 197.269531 C 348.285156 205.542969 341.539063 212.289063 333.25 212.289063 C 324.976563 212.289063 318.230469 205.542969 318.230469 197.269531 C 318.230469 188.980469 324.976563 182.234375 333.25 182.234375 Z M 1183.179688 198.9375 C 1191.449219 198.9375 1198.199219 205.683594 1198.199219 213.957031 C 1198.199219 222.226563 1191.449219 228.992188 1183.179688 228.992188 C 1174.890625 228.992188 1168.128906 222.226563 1168.128906 213.957031 C 1168.128906 205.683594 1174.890625 198.9375 1183.179688 198.9375 Z M 1396.160156 336.191406 C 1417.640625 342.621094 1438.28125 349.070313 1457.96875 355.472656 L 1479.359375 280.152344 L 1469.648438 277.386719 L 1450.96875 344.273438 C 1434.089844 338.832031 1416.53125 333.375 1398.351563 327.917969 Z M 1192.21875 283.125 C 1213.171875 287.78125 1233.761719 292.59375 1253.949219 297.53125 C 1247.378906 273.640625 1240.789063 249.765625 1234.199219 225.863281 L 1224.730469 223.894531 L 1241.761719 285.640625 C 1226.101563 281.867188 1210.199219 278.1875 1194.078125 274.601563 Z M 954.4375 242.957031 C 973.703125 245.238281 993.1875 247.675781 1012.988281 250.300781 C 1015.128906 228.535156 1017.28125 206.769531 1019.460938 185.003906 L 1010 183.617188 L 1004.421875 240.140625 C 988.457031 238.066406 970.9375 235.972656 955.285156 234.132813 Z M 559.726563 153.296875 L 641.398438 186.054688 L 642.058594 186.324219 L 641.761719 186.96875 L 641.746094 186.984375 C 640.578125 189.515625 639.289063 192 637.890625 194.390625 C 636.460938 196.796875 634.949219 199.125 633.328125 201.34375 C 624.917969 212.839844 613.652344 222.226563 600.679688 228.722656 L 600.207031 228.992188 L 599.863281 228.535156 L 594.625 221.773438 L 594.121094 221.128906 L 594.890625 220.75 L 594.890625 220.734375 C 597 219.789063 599.042969 218.753906 601.074219 217.636719 C 603.054688 216.550781 604.988281 215.371094 606.90625 214.128906 C 616.375 207.886719 624.367188 199.941406 629.996094 190.789063 L 559.269531 163.613281 L 558.828125 163.4375 L 558.828125 162.984375 L 558.8125 153.925781 L 558.8125 152.933594 Z M 371.988281 258.71875 C 392.324219 255.871094 412.941406 253.148438 433.765625 250.601563 L 427.582031 242.421875 L 388.199219 190.378906 L 376.972656 192.03125 L 416.023438 243.664063 C 400.988281 245.601563 384.960938 247.957031 370.191406 250.035156 Z M 213.265625 136.984375 C 214.113281 139.785156 214.820313 142.664063 215.417969 145.574219 C 221.507813 174.023438 205.855469 197.488281 161.191406 207.238281 C 151.769531 209.726563 142.648438 211.566406 133.242188 214.050781 C 138.261719 239.074219 143.121094 263.117188 148.152344 288.15625 C 125.742188 292.5 104.730469 297.1875 83.890625 301.683594 L 85.464844 310.082031 C 109.433594 304.8125 134.25 299.636719 159.808594 294.574219 C 154.820313 269.679688 149.742188 244.453125 144.738281 219.570313 C 154.144531 217.085938 163.265625 215.230469 172.6875 212.777344 C 213.21875 202.535156 230.234375 174.023438 224.148438 145.574219 C 223.425781 141.972656 222.511719 138.464844 221.425781 135.066406 Z M 144.300781 147.335938 C 152.574219 147.335938 159.320313 154.082031 159.320313 162.355469 C 159.320313 170.644531 152.574219 177.390625 144.300781 177.390625 C 136.011719 177.390625 129.265625 170.644531 129.265625 162.355469 C 129.265625 154.082031 136.011719 147.335938 144.300781 147.335938 "/>
<path style=" stroke:none;fill-rule:nonzero;fill:rgb(13.699341%,12.199402%,12.5%);fill-opacity:1;" d="M 706.351563 106.851563 L 785.476563 106.851563 L 785.476563 160.421875 L 697.011719 160.421875 L 697.011719 106.851563 L 706.351563 106.851563 "/>
<path style=" stroke:none;fill-rule:evenodd;fill:rgb(98.799133%,77.999878%,24.299622%);fill-opacity:1;" d="M 706.351563 116.179688 L 776.167969 116.179688 L 776.167969 151.09375 L 706.351563 151.09375 L 706.351563 116.179688 "/>
</g>
</svg>
